<svg preserveAspectRatio="none" width="100%" height="100%" overflow="visible" style="display: block;" viewBox="0 0 16 16" fill="none" xmlns="http://www.w3.org/2000/svg">
<g id="Pricing">
<path id="pricing" fill-rule="evenodd" clip-rule="evenodd" d="M2.41026 4.36423C2.1859 4.36423 2 4.17561 2 3.94797V3.38211C2 2.33899 2.76788 1.47822 3.76153 1.34985C3.81369 1.33902 3.8677 1.33333 3.92303 1.33333H4.01923H4.55128H9.99354C12.2053 1.33333 13.9999 3.15424 13.9999 5.39837V10.6016C13.9999 12.8458 12.2053 14.6667 9.99354 14.6667H7.12815C4.91639 14.6667 3.12174 12.8458 3.12174 10.6016V4.36207L2.41026 4.36423ZM4.72431 2.95935V10.6016C4.72431 11.9477 5.80146 13.0406 7.12815 13.0406H9.99354C11.3202 13.0406 12.3974 11.9477 12.3974 10.6016V5.39837C12.3974 4.05226 11.3202 2.95935 9.99354 2.95935H4.72431ZM6.0257 6.76424C6.0257 6.31523 6.38444 5.95123 6.82698 5.95123H10.2949C10.7375 5.95123 11.0962 6.31523 11.0962 6.76424C11.0962 7.21325 10.7375 7.57725 10.2949 7.57725H6.82698C6.38444 7.57725 6.0257 7.21325 6.0257 6.76424ZM6.0257 9.48293C6.0257 9.03392 6.38444 8.66992 6.82698 8.66992H8.2757C8.71823 8.66992 9.07698 9.03392 9.07698 9.48293C9.07698 9.93194 8.71823 10.2959 8.2757 10.2959H6.82698C6.38444 10.2959 6.0257 9.93194 6.0257 9.48293Z" fill="var(--fill-0, #7014F4)"/>
</g>
</svg>
