<svg preserveAspectRatio="none" width="100%" height="100%" overflow="visible" style="display: block;" viewBox="0 0 13.3333 13.3333" fill="none" xmlns="http://www.w3.org/2000/svg">
<g id="Layer_1">
<path id="Vector" d="M9.191 2.50211H8.56663L9.34542 1.29566C9.60054 0.906913 9.4864 0.390821 9.09701 0.136127C8.70762 -0.118568 8.19067 -0.00462556 7.93555 0.384119L6.77409 2.18039L5.61262 0.384119C5.3575 0.00877941 4.83384 -0.105163 4.44444 0.142829C4.05505 0.397524 3.94092 0.913616 4.19604 1.30236L4.97482 2.50881H4.14233C1.85968 2.50211 0 4.3587 0 6.63754V9.1979C0 11.4767 1.85968 13.3333 4.14233 13.3333H9.191C11.4736 13.3333 13.3333 11.4767 13.3333 9.1979V6.63754C13.3333 4.3587 11.4736 2.50211 9.191 2.50211ZM11.6549 9.1979C11.6549 10.5518 10.5472 11.6577 9.191 11.6577H4.14233C2.78617 11.6577 1.67842 10.5518 1.67842 9.1979V6.63754C1.67842 5.28364 2.78617 4.17773 4.14233 4.17773H9.191C10.5472 4.17773 11.6549 5.28364 11.6549 6.63754V9.1979Z" fill="var(--fill-0, #FC636B)"/>
<path id="Vector_2" d="M6.3377 6.16836C5.96845 5.92707 5.47835 6.19517 5.47835 6.63754V9.20459C5.47835 9.64696 5.96845 9.90835 6.3377 9.66706L8.31823 8.38019C8.65392 8.159 8.65392 7.66972 8.31823 7.44854L6.3377 6.16166V6.16836Z" fill="var(--fill-0, #FC636B)"/>
</g>
</svg>
