<svg preserveAspectRatio="none" width="100%" height="100%" overflow="visible" style="display: block;" viewBox="0 0 13.3333 13.3333" fill="none" xmlns="http://www.w3.org/2000/svg">
<g id="Layer_1">
<path id="Vector" d="M12.6844 0.592483C12.1177 0.049852 11.3082 -0.137724 10.5594 0.103445L1.34419 3.04437C0.851728 3.19845 0.446961 3.54011 0.210848 4.00235C-0.0252661 4.46459 -0.0657427 4.98713 0.10291 5.48956C1.39816 9.1808 4.41367 12.0748 8.15776 13.2338C8.31292 13.2874 8.46808 13.3142 8.61649 13.3276C9.48 13.3946 10.3098 12.872 10.5864 12.0346C10.5864 12.0212 10.6066 11.9743 10.6133 11.9542L13.2511 2.69602C13.4669 1.94571 13.2511 1.14181 12.6844 0.599183V0.592483ZM8.67721 11.6327C5.42559 10.6278 2.81484 8.12233 1.70174 4.94693C1.67475 4.86654 1.70174 4.79955 1.71523 4.75936C1.73547 4.71916 1.78269 4.66557 1.86364 4.63877L2.94302 4.29711C4.04938 7.18445 6.3633 9.39517 9.31809 10.3799L9.00102 11.492C8.96055 11.6193 8.82562 11.6863 8.67721 11.6394V11.6327ZM11.632 2.23378L9.77682 8.75875C7.36846 7.93475 5.47956 6.13268 4.55534 3.78128L11.0788 1.69784C11.1395 1.67775 11.2003 1.67105 11.2475 1.67775C11.3824 1.69114 11.4768 1.75814 11.5173 1.79833C11.5713 1.85192 11.6995 2.006 11.632 2.23378Z" fill="var(--fill-0, #FF8500)"/>
<path id="Vector_2" d="M6.38349 4.21003C6.05968 4.54498 6.06643 5.07422 6.40373 5.39578C6.74104 5.71734 7.27398 5.71064 7.59779 5.37568C7.92161 5.04072 7.91486 4.51149 7.57755 4.18993C7.24025 3.86837 6.70731 3.87507 6.38349 4.21003Z" fill="var(--fill-0, #FF8500)"/>
<path id="Vector_3" d="M9.00101 3.82817C8.67719 4.16313 8.68394 4.69236 9.02124 5.01392C9.35855 5.33548 9.89149 5.32878 10.2153 4.99382C10.5391 4.65887 10.5324 4.12963 10.1951 3.80807C9.85776 3.48651 9.32482 3.49321 9.00101 3.82817Z" fill="var(--fill-0, #FF8500)"/>
</g>
</svg>
