<svg preserveAspectRatio="none" width="100%" height="100%" overflow="visible" style="display: block;" viewBox="0 0 13.3333 12" fill="none" xmlns="http://www.w3.org/2000/svg">
<g id="Layer_1">
<path id="Vector" d="M12.9698 5.7549C12.9244 5.46614 12.8919 5.23783 12.8789 5.12367L12.8595 5.02966C12.6842 3.14941 11.2042 1.73251 9.41253 1.73251H7.47809V0.839396C7.47809 0.376049 7.11457 0 6.66667 0C6.21876 0 5.85524 0.376049 5.85524 0.839396V1.73251H3.91431C2.12918 1.73251 0.64914 3.14941 0.473872 5.0498L0.460889 5.12367C0.447906 5.23783 0.415449 5.46614 0.37001 5.7549C0.220708 6.71516 0 8.15893 0 9.03861C0 10.6704 1.25933 12 2.80428 12C3.81045 12 4.34924 11.4225 4.71276 11.0397L5.65401 10.0392C5.75138 9.93844 5.88121 9.87801 6.01103 9.87801H7.32879C7.45862 9.87801 7.59494 9.93844 7.68582 10.0392L8.62707 11.0397C8.9841 11.4225 9.52937 11.9933 10.529 11.9933C12.074 11.9933 13.3333 10.6637 13.3333 9.0319C13.3333 8.15893 13.1126 6.70845 12.9633 5.74818L12.9698 5.7549ZM10.5355 10.3212C10.2304 10.3212 10.1071 10.2071 9.79552 9.87129L8.85427 8.87073C8.4518 8.44768 7.90003 8.19922 7.33528 8.19922H6.01753C5.45277 8.19922 4.89451 8.44096 4.49854 8.87073L3.55729 9.87129C3.2457 10.2071 3.11587 10.3212 2.81727 10.3212C2.16813 10.3212 1.63583 9.7437 1.63583 9.03861C1.63583 8.29323 1.85654 6.86961 1.98637 6.01679C2.0383 5.69446 2.07076 5.446 2.08374 5.35199C2.09672 5.28483 2.10321 5.23111 2.10321 5.16396C2.20708 4.1634 2.99253 3.4113 3.9273 3.4113H9.41253C10.3603 3.4113 11.1457 4.17683 11.2496 5.23783L11.2626 5.33184C11.2756 5.46614 11.3145 5.70789 11.3599 6.01007C11.4898 6.8629 11.7105 8.28651 11.7105 9.0319C11.7105 9.77728 11.1782 10.3145 10.529 10.3145L10.5355 10.3212Z" fill="var(--fill-0, #2E4B7B)"/>
<path id="Vector_2" d="M9.38008 5.1438C8.90621 5.1438 8.51672 5.53999 8.51672 6.0302C8.51672 6.52041 8.89972 6.90989 9.38008 6.90989C9.86044 6.90989 10.2434 6.51369 10.2434 6.0302C10.2434 5.54671 9.85395 5.1438 9.38008 5.1438Z" fill="var(--fill-0, #2E4B7B)"/>
<path id="Vector_3" d="M5.61174 5.49625H5.06019V4.92569C5.06019 4.6331 4.82684 4.39171 4.544 4.39171C4.26115 4.39171 4.02781 4.6331 4.02781 4.92569V5.49625H3.47626C3.19341 5.49625 2.96007 5.73764 2.96007 6.03024C2.96007 6.32283 3.19341 6.56422 3.47626 6.56422H4.02781V7.13478C4.02781 7.42738 4.26115 7.66877 4.544 7.66877C4.82684 7.66877 5.06019 7.42738 5.06019 7.13478V6.56422H5.61174C5.89458 6.56422 6.12793 6.32283 6.12793 6.03024C6.12793 5.73764 5.89458 5.49625 5.61174 5.49625Z" fill="var(--fill-0, #2E4B7B)"/>
</g>
</svg>
