<svg preserveAspectRatio="none" width="100%" height="100%" overflow="visible" style="display: block;" viewBox="0 0 12 13.3333" fill="none" xmlns="http://www.w3.org/2000/svg">
<g id="Layer_1" clip-path="url(#clip0_0_156)">
<path id="Vector" d="M11.9731 6.10193V6.04178C11.9124 5.33334 11.6764 4.64495 11.2854 4.05681C10.5641 2.98079 9.34385 2.33919 8.01576 2.33919C7.80003 2.33919 7.57755 2.35924 7.36182 2.39934C7.56407 2.11195 7.89441 1.79783 8.44722 1.63743C8.89216 1.50376 9.14834 1.04261 9.01351 0.594826C8.87868 0.153723 8.40677 -0.100245 7.96182 0.0334225C6.10789 0.581459 5.56856 2.11195 5.45396 2.53969L5.23149 2.49959L5.1034 2.47954L4.57755 2.38597C4.36182 2.34587 4.13935 2.32582 3.91688 2.32582C3.04047 2.32582 2.20452 2.61989 1.50339 3.18129C0.653957 3.86968 0.114631 4.9457 0.0202488 6.14203C-0.0876164 7.57227 0.19553 8.98914 0.842721 10.2523L1.11238 10.787C1.13935 10.8471 1.17306 10.9006 1.21351 10.9541L1.9416 12.0368C2.02924 12.1704 2.13036 12.2974 2.23823 12.411C2.79104 12.9992 3.55958 13.3333 4.35508 13.3333C4.9416 13.3333 5.51463 13.1529 5.99328 12.8187C6.47868 13.1529 7.04497 13.3333 7.63149 13.3333C8.60227 13.3333 9.50564 12.8455 10.0517 12.0301L10.7798 10.9474C10.8135 10.8939 10.8472 10.8338 10.8809 10.7803L11.1371 10.279C11.791 8.99583 12.0809 7.55222 11.9731 6.10193ZM9.63373 9.52381L9.37755 10.0251L8.64946 11.1078C8.40677 11.4687 8.0225 11.6625 7.63823 11.6625C7.38879 11.6625 7.13261 11.5823 6.91688 11.4152C6.86295 11.3751 6.80901 11.3283 6.76182 11.2749C6.53935 11.0343 6.24946 10.9073 5.97306 10.9073C5.73036 10.9073 5.48767 11.0075 5.29216 11.2147L5.23823 11.2749C4.99553 11.5355 4.67868 11.6625 4.35508 11.6625C4.03149 11.6625 3.71463 11.5355 3.47193 11.2749C3.42474 11.2214 3.37755 11.1679 3.3371 11.1078L2.60901 10.0251L2.33935 9.4904C1.83373 8.50794 1.61126 7.38513 1.6989 6.26233C1.75283 5.56726 2.04272 4.89892 2.56182 4.47787C2.97306 4.15038 3.44497 3.98998 3.91688 3.98998C4.03823 3.98998 4.15957 4.00335 4.28092 4.0234L4.80677 4.11696L4.93486 4.13701L5.50789 4.23727C5.66969 4.264 5.83149 4.27737 5.99328 4.27737C6.15508 4.27737 6.31688 4.264 6.47868 4.23727L7.59104 4.03676C7.73261 4.01003 7.87418 3.99666 8.00901 3.99666C8.7371 3.99666 9.45171 4.33083 9.87643 4.96575C10.1124 5.31997 10.254 5.73434 10.2809 6.14871V6.20886C10.3753 7.35172 10.1461 8.49458 9.62699 9.50376L9.63373 9.52381Z" fill="var(--fill-0, #2BAB3F)"/>
<path id="Vector_2" d="M4.12584 4.89223C3.54607 5.1061 2.52809 5.88137 2.80449 7.30493C2.88539 7.70593 3.23596 7.97995 3.63371 7.97995C3.68764 7.97995 3.74157 7.97995 3.79551 7.96658C4.25393 7.8797 4.55056 7.4386 4.46292 6.98413C4.4427 6.89056 4.38876 6.59649 4.72584 6.44946C5.15056 6.28237 5.36629 5.80785 5.21124 5.38012C5.04944 4.9457 4.56404 4.72515 4.12584 4.88555V4.89223Z" fill="var(--fill-0, #2BAB3F)"/>
</g>
<defs>
<clipPath id="clip0_0_156">
<rect width="12" height="13.3333" fill="white"/>
</clipPath>
</defs>
</svg>
