<svg preserveAspectRatio="none" width="100%" height="100%" overflow="visible" style="display: block;" viewBox="0 0 13.3333 13.3333" fill="none" xmlns="http://www.w3.org/2000/svg">
<g id="Layer_1" clip-path="url(#clip0_0_127)">
<path id="Vector" d="M7.86322 13.3308C6.74322 13.3308 5.82989 12.4108 5.82989 11.2842V6.9575H0.829889C0.596556 6.9575 0.369889 6.8575 0.216556 6.68417C0.0565559 6.51083 -0.0167775 6.2775 0.00322253 6.0375C0.163223 4.3775 0.929889 2.85083 2.16322 1.7375C4.72989 -0.582499 8.59656 -0.575832 11.1632 1.7375C12.3966 2.85083 13.1632 4.38417 13.3232 6.04417C13.3432 6.2775 13.2699 6.51083 13.1099 6.69083C12.9499 6.86417 12.7299 6.96417 12.4966 6.96417H7.48989V11.2908C7.48989 11.4975 7.65656 11.6642 7.85656 11.6642C8.05656 11.6642 8.22322 11.4975 8.22322 11.2908C8.22322 10.8308 8.59656 10.4575 9.05656 10.4575C9.51656 10.4575 9.88989 10.8308 9.88989 11.2908C9.88989 12.4175 8.97656 13.3375 7.85656 13.3375L7.86322 13.3308ZM1.82989 5.28417H11.4966C11.2366 4.40417 10.7432 3.60417 10.0499 2.9775C8.11656 1.23083 5.20322 1.23083 3.26989 2.9775C2.57656 3.60417 2.08322 4.3975 1.82322 5.28417H1.82989Z" fill="var(--fill-0, #9E2BCF)"/>
</g>
<defs>
<clipPath id="clip0_0_127">
<rect width="13.3333" height="13.3333" fill="white"/>
</clipPath>
</defs>
</svg>
