<svg preserveAspectRatio="none" width="100%" height="100%" overflow="visible" style="display: block;" viewBox="0 0 13.3334 13.3332" fill="none" xmlns="http://www.w3.org/2000/svg">
<g id="Layer_1">
<path id="Vector" d="M13.2969 1.7089C13.2568 1.26207 13.03 0.861924 12.6565 0.608497C12.2896 0.355069 11.8293 0.27504 11.389 0.388415C10.1082 0.73521 7.76681 1.57552 6.54606 3.3295C4.83167 5.78375 5.77892 9.24503 5.81894 9.39175C5.81894 9.41176 5.83896 9.43177 5.84563 9.45177C6.07243 10.4988 6.6728 11.9327 7.07972 12.8397C7.2198 13.1531 7.52666 13.3332 7.85353 13.3332C7.96693 13.3332 8.08033 13.3132 8.19374 13.2598C8.62066 13.0731 8.81412 12.5796 8.62066 12.1594C8.28046 11.3992 7.93358 10.5122 7.7001 9.83191C8.92752 9.55848 11.0021 8.86489 12.1762 7.1776C13.3969 5.43028 13.3969 2.99605 13.2902 1.70224L13.2969 1.7089ZM10.7953 6.23725C9.92813 7.47771 8.27378 8.00457 7.30652 8.21131C7.30652 8.21131 7.30652 8.21131 7.30652 8.20464C7.16644 7.23762 7.07972 5.51698 7.94025 4.28319C8.82746 3.01606 10.6819 2.3358 11.6358 2.06237C11.6959 3.02939 11.6892 4.97011 10.802 6.23725H10.7953Z" fill="var(--fill-0, #D46175)"/>
<path id="Vector_2" d="M1.8765 1.78239C1.94321 1.72904 2.06996 1.64901 2.27008 1.67568C3.09725 1.80906 4.26464 2.09584 5.08514 2.68939C5.4587 2.96283 5.98569 2.87613 6.26587 2.50932C6.53937 2.13585 6.45932 1.61566 6.08575 1.34223C4.99175 0.555267 3.55086 0.195133 2.54358 0.0284049C1.9232 -0.0716322 1.29615 0.0950963 0.809181 0.488575C0.328886 0.875385 0.0353726 1.4556 0.00868958 2.06916C-0.0446765 3.36297 0.122093 5.20366 1.23611 6.63752C1.82314 7.39113 2.41683 7.86464 3.2907 8.27146C3.40411 8.32481 3.53085 8.35149 3.65093 8.35149C3.97112 8.35149 4.27131 8.17142 4.41806 7.87131C4.61819 7.45116 4.43141 6.95764 4.01115 6.75757C3.3841 6.46412 2.99719 6.15734 2.57693 5.62381C1.77644 4.58343 1.65637 3.15623 1.69639 2.13585C1.70306 1.94245 1.8098 1.82907 1.8765 1.77572V1.78239Z" fill="var(--fill-0, #D46175)"/>
</g>
</svg>
