<svg preserveAspectRatio="none" width="100%" height="100%" overflow="visible" style="display: block;" viewBox="0 0 13.3333 12" fill="none" xmlns="http://www.w3.org/2000/svg">
<g id="Layer_1">
<path id="Vector" d="M11.1267 0H2.20667C0.986667 0 0 0.973874 0 2.17454V2.88827C0 3.50195 0.26 4.05559 0.68 4.44914V8.83157C0.68 10.5792 2.12 12 3.88667 12H9.41333C11.18 12 12.62 10.5792 12.62 8.83157V4.48249C13.0533 4.08227 13.3333 3.52196 13.3333 2.89494V2.18121C13.3333 0.980545 12.3467 0.00667037 11.1267 0.00667037V0ZM1.67333 2.17454C1.67333 1.88772 1.91333 1.64758 2.20667 1.64758H11.1267C11.42 1.64758 11.66 1.88105 11.66 2.17454V2.88827C11.66 3.1751 11.42 3.41523 11.1267 3.41523H2.20667C1.91333 3.41523 1.67333 3.18177 1.67333 2.88827V2.17454ZM9.41333 10.3524H3.88667C3.04 10.3524 2.35333 9.67204 2.35333 8.83824V5.06948H10.9533V8.83824C10.9533 9.67204 10.2667 10.3524 9.42 10.3524H9.41333Z" fill="var(--fill-0, #DA8E65)"/>
<path id="Vector_2" d="M9.03331 7.25737H7.64665C7.18665 7.25737 6.81331 7.62424 6.81331 8.0845C6.81331 8.54475 7.18665 8.91162 7.64665 8.91162H9.03331C9.49331 8.91162 9.86665 8.54475 9.86665 8.0845C9.86665 7.62424 9.49331 7.25737 9.03331 7.25737Z" fill="var(--fill-0, #DA8E65)"/>
</g>
</svg>
