<svg preserveAspectRatio="none" width="100%" height="100%" overflow="visible" style="display: block;" viewBox="0 0 12 12" fill="none" xmlns="http://www.w3.org/2000/svg">
<g id="Layer_1">
<path id="Vector" d="M10.72 1.28C9.00667 -0.426667 6.22667 -0.426667 4.52 1.28L1.28 4.52C-0.426667 6.22667 -0.426667 9.00667 1.28 10.72C2.13333 11.5733 3.25333 12 4.38 12C5.50667 12 6.62667 11.5733 7.48 10.72L10.72 7.48C12.4267 5.77333 12.4267 2.99333 10.72 1.28ZM6.86 8.97333L6.3 9.53333C5.16 10.6733 3.25333 10.5867 2.23333 9.26667C1.39333 8.18 1.56 6.60667 2.53333 5.63333L3.02667 5.14C3.12 5.04667 3.28 5.08667 3.32 5.21333C3.88667 6.82667 5.16667 8.10667 6.78667 8.68C6.91333 8.72667 6.95333 8.88 6.86 8.97333ZM9.43333 6.4L8.72667 7.10667C8.59333 7.24 8.4 7.32 8.21333 7.3C6.37333 7.09333 4.91333 5.63333 4.70667 3.79333C4.68667 3.60667 4.76 3.41333 4.9 3.28L5.71333 2.46667C6.24 1.94 6.93333 1.67333 7.62667 1.67333C8.28 1.67333 8.93333 1.90667 9.44667 2.37333C10.6067 3.42667 10.5467 5.3 9.44 6.4H9.43333Z" fill="var(--fill-0, #2E90FF)"/>
<path id="Vector_2" d="M8.47333 2.96667C7.99333 2.66667 6.86 2.36667 5.97333 3.38C5.72667 3.66 5.76 4.08 6.03333 4.32667C6.16 4.44 6.32 4.49333 6.47333 4.49333C6.66 4.49333 6.84667 4.41333 6.97333 4.26667C7.28 3.91333 7.6 4.02 7.76 4.11333C8.07333 4.3 8.48 4.20667 8.67333 3.89333C8.86667 3.58 8.77333 3.16667 8.46 2.97333L8.47333 2.96667Z" fill="var(--fill-0, #2E90FF)"/>
</g>
</svg>
