<svg preserveAspectRatio="none" width="100%" height="100%" overflow="visible" style="display: block;" viewBox="0 0 13.333 13.3329" fill="none" xmlns="http://www.w3.org/2000/svg">
<g id="Layer_1">
<path id="Vector" d="M8.09553 6.08106H5.1311C4.41964 6.08106 3.76746 5.69065 3.43149 5.05542C3.09553 4.4268 3.13505 3.66584 3.53031 3.07031L5.01252 0.853598C5.36825 0.317618 5.96773 0 6.60673 0C7.24572 0 7.8452 0.317618 8.20093 0.853598L9.68314 3.07692C10.0784 3.67246 10.1179 4.43342 9.78196 5.06203C9.44599 5.69065 8.79381 6.08106 8.08235 6.08106H8.09553ZM6.61331 1.65426C6.56061 1.65426 6.45521 1.66749 6.38275 1.77998L4.90053 4.00331C4.82148 4.12242 4.85442 4.2349 4.88736 4.28784C4.91371 4.34078 4.98617 4.43342 5.1311 4.43342H8.09553C8.24045 4.43342 8.31292 4.34078 8.33927 4.28784C8.36562 4.2349 8.40514 4.12242 8.32609 4.00331L6.84388 1.77998C6.77142 1.67411 6.6726 1.65426 6.61331 1.65426Z" fill="var(--fill-0, #0052AD)"/>
<path id="Vector_2" d="M3.76812 13.1934H2.04216C0.915678 13.1934 0 12.2736 0 11.1421V9.40843C0 8.27691 0.915678 7.35714 2.04216 7.35714H3.76812C4.8946 7.35714 5.81028 8.27691 5.81028 9.40843V11.1421C5.81028 12.2736 4.8946 13.1934 3.76812 13.1934ZM2.04216 9.0114C1.82477 9.0114 1.6469 9.19006 1.6469 9.40843V11.1421C1.6469 11.3605 1.82477 11.5391 2.04216 11.5391H3.76812C3.98551 11.5391 4.16337 11.3605 4.16337 11.1421V9.40843C4.16337 9.19006 3.98551 9.0114 3.76812 9.0114H2.04216Z" fill="var(--fill-0, #0052AD)"/>
<path id="Vector_3" d="M10.2896 13.3329C8.61632 13.3329 7.24609 11.9632 7.24609 10.2758C7.24609 8.58848 8.60973 7.21875 10.2896 7.21875C11.9694 7.21875 13.3331 8.58848 13.3331 10.2758C13.3331 11.9632 11.9694 13.3329 10.2896 13.3329ZM10.2896 8.87963C9.51882 8.87963 8.893 9.50825 8.893 10.2824C8.893 11.0566 9.51882 11.6853 10.2896 11.6853C11.0603 11.6853 11.6861 11.0566 11.6861 10.2824C11.6861 9.50825 11.0603 8.87963 10.2896 8.87963Z" fill="var(--fill-0, #0052AD)"/>
</g>
</svg>
