<svg preserveAspectRatio="none" width="100%" height="100%" overflow="visible" style="display: block;" viewBox="0 0 16 16" fill="none" xmlns="http://www.w3.org/2000/svg">
<g id="Layer_1">
<path id="Vector" d="M10.4667 3.68448C10.8133 3.68448 11.1333 3.76534 11.4267 3.90009C12.32 4.31784 12.98 5.30829 12.98 6.4874C12.98 7.66652 12.4933 8.62328 11.8 9.42508C11.0867 10.2404 10.1933 10.8804 9.37334 11.534C9.08667 11.7631 8.83334 11.9652 8.59334 12.1067C8.34667 12.255 8.15334 12.3156 7.98667 12.3156C7.82001 12.3156 7.62001 12.2482 7.38001 12.1067L6.60001 11.534C5.78001 10.8804 4.88667 10.2336 4.17334 9.42508C3.48001 8.63002 2.99334 7.69347 2.99334 6.4874C2.99334 5.28134 3.64667 4.3111 4.54667 3.90009C4.84001 3.76534 5.16001 3.68448 5.50667 3.68448C6.19334 3.68448 6.96001 3.99442 7.70001 4.77601C7.78001 4.85686 7.88667 4.90402 7.99334 4.90402C8.10001 4.90402 8.19334 4.8636 8.27334 4.78948C8.27334 4.78948 8.28001 4.78274 8.28667 4.77601C9.02667 3.99442 9.79334 3.68448 10.48 3.68448M10.48 2.00004C9.83334 2.00004 8.94001 2.16174 8.00001 2.81531C7.06001 2.15501 6.16667 2.00004 5.51334 2.00004C4.94001 2.00004 4.38001 2.12132 3.85334 2.37062C2.32001 3.08482 1.33334 4.70189 1.33334 6.4874C1.33334 7.97646 1.85334 9.3038 2.93334 10.5368C3.61334 11.3117 4.40667 11.9383 5.10667 12.484C5.26001 12.6053 5.42001 12.7266 5.57334 12.8479C5.59334 12.8614 5.61334 12.8748 5.63334 12.895L6.41334 13.4678C6.45334 13.5014 6.50001 13.5284 6.54667 13.5553C7.04667 13.8518 7.52667 14 8.00001 14C8.47334 14 8.95334 13.8518 9.45334 13.5553C9.78667 13.3599 10.0933 13.1174 10.4267 12.8479C10.58 12.7266 10.7333 12.6053 10.8933 12.484C11.5933 11.9315 12.3867 11.3117 13.0667 10.5368C14.14 9.3038 14.6667 7.97646 14.6667 6.4874C14.6667 4.69515 13.6733 3.07808 12.1467 2.37062C11.62 2.12806 11.0667 2.00004 10.4867 2.00004H10.48Z" fill="var(--fill-0, #D30AD7)"/>
</g>
</svg>
