<svg preserveAspectRatio="none" width="100%" height="100%" overflow="visible" style="display: block;" viewBox="0 0 16 16" fill="none" xmlns="http://www.w3.org/2000/svg">
<g id="repay">
<path id="Vector" d="M1.1027 7.86418C1.1027 9.80556 1.96937 11.5436 3.33604 12.7439L2.66937 13.7014C2.53604 13.8916 2.52937 14.1474 2.64937 14.3508C2.76937 14.5541 2.99604 14.6656 3.23604 14.6459L6.40937 14.3508C6.58937 14.3311 6.75604 14.2393 6.85604 14.0884C6.95604 13.9441 6.98937 13.7539 6.9427 13.5834L6.07604 10.5664C6.00937 10.3434 5.8227 10.1728 5.5827 10.1335C5.34937 10.0941 5.10937 10.1925 4.97604 10.3893L4.28937 11.3731C3.35603 10.4811 2.76937 9.24151 2.76937 7.87073C2.76937 4.83404 5.5827 2.43355 8.77603 3.05007C10.7694 3.43048 12.3627 5.05048 12.696 7.02466C13.1294 9.56289 11.576 11.8256 9.31604 12.5471C8.97604 12.652 8.74937 12.9669 8.74937 13.3145C8.74937 13.8785 9.30937 14.2655 9.85604 14.0884C12.656 13.1833 14.6427 10.5073 14.4227 7.40507C14.1894 4.09947 11.356 1.4235 7.98937 1.31856C4.20937 1.19395 1.1027 4.17817 1.1027 7.87074L1.1027 7.86418Z" fill="var(--fill-0, #1F852F)"/>
</g>
</svg>
