<svg preserveAspectRatio="none" width="100%" height="100%" overflow="visible" style="display: block;" viewBox="0 0 13.33 13.33" fill="none" xmlns="http://www.w3.org/2000/svg">
<g id="Layer_1">
<path id="Vector" d="M6.25511 5.52403H6.2417C4.68589 5.51745 3.42515 4.27454 3.42515 2.76201C3.43186 1.23633 4.6993 0 6.25511 0C7.81092 0 9.07836 1.24948 9.07836 2.76201C9.07836 3.49197 8.79 4.18905 8.25352 4.71515C7.71703 5.24125 7.01289 5.5306 6.25511 5.5306V5.52403ZM6.25511 3.87997C6.56359 3.87997 6.84524 3.7616 7.06654 3.55116C7.28784 3.34072 7.40185 3.05794 7.40185 2.76201C7.40185 2.14385 6.88548 1.63748 6.25511 1.63748C5.62474 1.63748 5.10837 2.14385 5.10167 2.76201C5.10167 3.3736 5.61803 3.87339 6.2484 3.87997H6.25511Z" fill="var(--fill-0, #78C800)"/>
<path id="Vector_2" d="M6.08745 13.3168C6.00698 13.3168 5.93321 13.3168 5.85945 13.3168C4.0421 13.2576 2.27841 12.6855 1.02438 11.7451C0.42083 11.2979 0.0519967 10.6206 0.00505426 9.8972C-0.0418882 9.17381 0.239766 8.46358 0.782958 7.95064C2.10405 6.70115 4.16952 6.14218 6.76477 6.33289C7.22748 6.36577 7.5762 6.76034 7.54267 7.2141C7.50914 7.66786 7.12019 8.00325 6.64406 7.97694C4.53835 7.81911 2.90878 8.22684 1.94981 9.14093C1.76204 9.31849 1.66816 9.55523 1.68157 9.80513C1.69498 10.055 1.8224 10.2852 2.03699 10.4496C3.02278 11.1861 4.43776 11.6333 5.9198 11.6859C6.55017 11.7122 7.3616 11.5873 7.36831 11.5873C7.83103 11.5215 8.25351 11.824 8.32728 12.2712C8.40104 12.7184 8.08586 13.1393 7.62985 13.2116C7.59632 13.2116 6.82512 13.33 6.09416 13.33L6.08745 13.3168Z" fill="var(--fill-0, #78C800)"/>
<path id="Vector_3" d="M13.2026 7.8454C13.2764 7.8717 13.33 7.94404 13.33 8.02296C13.33 8.10187 13.2831 8.17421 13.2093 8.20709L12.0894 8.68716C12.5789 10.3181 11.7608 12.0476 10.1714 12.7381C10.0507 12.7907 9.92332 12.8368 9.7959 12.8696C9.71543 12.8959 9.62155 12.8696 9.5746 12.7973L9.55449 12.7644C9.52766 12.6987 9.53437 12.6263 9.5746 12.5671C10.205 11.7122 10.3324 10.6008 9.9032 9.62756L8.80341 10.101C8.72964 10.1339 8.64246 10.1142 8.58211 10.0616C8.52175 10.009 8.50163 9.92349 8.53517 9.85115L9.61484 7.10229C9.73555 6.7932 10.091 6.64195 10.3995 6.76032L13.2026 7.83882V7.8454Z" fill="var(--fill-0, #78C800)"/>
</g>
</svg>
