<svg preserveAspectRatio="none" width="100%" height="100%" overflow="visible" style="display: block;" viewBox="0 0 16 16" fill="none" xmlns="http://www.w3.org/2000/svg">
<g id="Layer_1">
<path id="Union" fill-rule="evenodd" clip-rule="evenodd" d="M5.86425 4.51107C5.91233 4.0672 6.28865 3.72127 6.74523 3.72127H9.28797C9.74454 3.72127 10.1209 4.0672 10.1689 4.51107H5.86425ZM4.19398 4.5165C4.24189 3.14898 5.36605 2.05461 6.74523 2.05461H9.28797C10.6677 2.05461 11.7922 3.1499 11.8393 4.51822C13.3832 4.62486 14.6026 5.91111 14.6026 7.48216V11.0008C14.6026 12.6417 13.2724 13.9719 11.6315 13.9719H4.3751C2.73422 13.9719 1.40401 12.6417 1.40401 11.0008V8.79004V7.48216C1.40401 5.90209 2.63744 4.6101 4.19398 4.5165ZM3.07068 11.0008V9.62337H7.18472C7.22949 10.0414 7.58336 10.3669 8.01327 10.3669C8.44319 10.3669 8.79706 10.0414 8.84183 9.62337H12.936V11.0008C12.936 11.7212 12.352 12.3053 11.6315 12.3053H4.3751C3.65469 12.3053 3.07068 11.7212 3.07068 11.0008ZM8.8455 7.95671H12.936V7.48216C12.936 6.76175 12.352 6.17773 11.6315 6.17773H4.3751C3.65469 6.17773 3.07068 6.76175 3.07068 7.48216V7.95671H7.18105C7.20357 7.51659 7.56756 7.16667 8.01327 7.16667C8.45899 7.16667 8.82298 7.51659 8.8455 7.95671Z" fill="var(--fill-0, #F4789F)"/>
</g>
</svg>
