<svg preserveAspectRatio="none" width="100%" height="100%" overflow="visible" style="display: block;" viewBox="0 0 12 12" fill="none" xmlns="http://www.w3.org/2000/svg">
<g id="Layer_1">
<path id="Vector" d="M9.0109 11.9933H2.98914C2.1194 11.9933 1.2895 11.612 0.725167 10.9431C0.154195 10.2809 -0.0980954 9.39799 0.0346888 8.53512L0.937621 2.56187C1.15672 1.07692 2.40489 0 3.89207 0H8.03494C9.5022 0 10.7437 1.05686 10.9827 2.52174L11.9587 8.49498C12.1048 9.37124 11.8591 10.2609 11.2882 10.9365C10.7172 11.612 9.88728 12 9.0109 12V11.9933ZM3.89207 1.67224C3.22815 1.67224 2.67709 2.15385 2.57751 2.80936L1.67457 8.78261C1.61482 9.17057 1.72769 9.55853 1.97998 9.85953C2.23227 10.1538 2.59742 10.3278 2.98914 10.3278H9.0109C9.40261 10.3278 9.77441 10.1538 10.0267 9.85284C10.279 9.55184 10.3852 9.15719 10.3255 8.76923L9.3495 2.79599C9.24327 2.14716 8.69222 1.67224 8.03494 1.67224H3.89207Z" fill="var(--fill-0, #F39C1B)"/>
<path id="Vector_2" d="M6.04323 5.99332C4.94776 5.99332 3.94524 5.43144 3.48713 4.56857C3.27468 4.16054 3.42738 3.65218 3.83237 3.43813C4.23736 3.2174 4.74194 3.37793 4.9544 3.78596C5.09382 4.05352 5.48553 4.32108 6.04323 4.32108C6.60092 4.32108 7.01255 4.04014 7.15198 3.77258C7.37107 3.36455 7.87565 3.2174 8.28064 3.43813C8.68563 3.65887 8.8317 4.16723 8.6126 4.57526C8.14786 5.43813 7.1387 5.99332 6.04323 5.99332Z" fill="var(--fill-0, #F39C1B)"/>
</g>
</svg>
