<svg preserveAspectRatio="none" width="100%" height="100%" overflow="visible" style="display: block;" viewBox="0 0 13.3333 13.3334" fill="none" xmlns="http://www.w3.org/2000/svg">
<g id="Group">
<path id="Vector" d="M12.4585 1.05938C11.8422 0.384615 10.9645 0 10.0466 0H3.27999C2.36884 0 1.49118 0.384615 0.868114 1.05938C0.251746 1.73414 -0.0631381 2.64507 0.0105581 3.56275L0.291944 7.11876C0.425937 8.82591 1.86636 10.1619 3.56138 10.1619H9.77196C11.4737 10.1619 12.9074 8.82591 13.0414 7.11876L13.3228 3.56275C13.3965 2.64507 13.0816 1.73414 12.4652 1.05938H12.4585ZM11.3665 6.98381C11.2995 7.82051 10.596 8.47503 9.76526 8.47503H3.56138C2.73062 8.47503 2.02715 7.82051 1.96016 6.98381L1.67877 3.4278C1.64527 2.97571 1.79267 2.53711 2.10085 2.19973C2.40904 1.86235 2.82441 1.68016 3.27999 1.68016H10.0466C10.5022 1.68016 10.9176 1.86235 11.2258 2.19973C11.534 2.53711 11.6814 2.96896 11.6479 3.4278L11.3665 6.98381Z" fill="var(--fill-0, #5CA8FF)"/>
<path id="Vector_2" d="M6.6377 3.45497C6.17542 3.13783 5.54565 3.46846 5.54565 4.03526V6.17427C5.54565 6.74107 6.17542 7.0717 6.6377 6.75456L8.19202 5.68169C8.6007 5.40503 8.6007 4.79775 8.19202 4.52109L6.6377 3.44822V3.45497Z" fill="var(--fill-0, #5CA8FF)"/>
<path id="Vector_3" d="M11.2063 11.6465H2.11484C1.65256 11.6465 1.27738 12.0244 1.27738 12.4899C1.27738 12.9555 1.65256 13.3334 2.11484 13.3334H11.213C11.6752 13.3334 12.0504 12.9555 12.0504 12.4899C12.0504 12.0244 11.6752 11.6465 11.213 11.6465H11.2063Z" fill="var(--fill-0, #5CA8FF)"/>
</g>
</svg>
