<svg preserveAspectRatio="none" width="100%" height="100%" overflow="visible" style="display: block;" viewBox="0 0 14.6667 13.3327" fill="none" xmlns="http://www.w3.org/2000/svg">
<g id="Layer_1">
<path id="Vector" d="M14.3003 2.66602C13.9201 2.41935 13.4198 2.53268 13.1796 2.92602L12.9395 3.31268C11.8922 1.45268 10.0045 0.192684 7.86332 0.0193503C5.16847 -0.193983 2.60037 1.37268 1.49308 3.92602C1.30631 4.34602 1.49308 4.84602 1.89997 5.03935C2.31354 5.22602 2.78714 5.03935 2.97391 4.61935C3.80104 2.71268 5.71545 1.53935 7.72991 1.69935C9.75105 1.85935 11.472 3.32602 12.0056 5.33935C12.0924 5.65935 12.3525 5.89935 12.666 5.94602C12.706 5.94602 12.7461 5.95268 12.7861 5.95268C13.0596 5.95268 13.3197 5.80602 13.4731 5.56602L14.5404 3.83268C14.7805 3.43935 14.6671 2.91935 14.2936 2.67268L14.3003 2.66602Z" fill="var(--fill-0, #78C800)"/>
<path id="Vector_2" d="M12.8328 8.29268C12.4259 8.10602 11.9456 8.29268 11.7588 8.71268C10.9317 10.6193 9.0173 11.7927 6.99617 11.6327C4.97503 11.4727 3.26074 10.006 2.72711 7.99268C2.64706 7.67935 2.39359 7.44602 2.08675 7.38602C1.77991 7.33268 1.4664 7.45935 1.2863 7.72602L0.152327 9.35268C-0.107819 9.73268 -0.027774 10.2527 0.339099 10.526C0.705971 10.7927 1.21292 10.7127 1.47307 10.3327L1.75323 9.93268C2.78714 11.8393 4.70155 13.1393 6.86943 13.3127C7.03619 13.326 7.20295 13.3327 7.36304 13.3327C9.87779 13.3327 12.1991 11.806 13.2397 9.40602C13.4264 8.98602 13.2397 8.48602 12.8328 8.29268Z" fill="var(--fill-0, #78C800)"/>
<path id="Vector_3" d="M7.36303 6.3727H5.42861C5.15512 6.3727 4.91499 6.54603 4.81493 6.80603C4.71487 7.06603 4.78825 7.36603 4.99503 7.5527L7.55647 9.90603C7.67654 10.0194 7.82995 10.0794 7.99004 10.0794C8.17682 10.0794 8.35025 9.99936 8.47699 9.8527C8.59705 9.71936 8.65709 9.54603 8.64375 9.35936C8.6304 9.17936 8.55703 9.0127 8.42362 8.8927L7.15624 7.72603H7.36303C8.36359 7.72603 9.17738 6.88603 9.17738 5.84603C9.17738 5.66603 9.15737 5.4927 9.11067 5.3327H9.5109C9.8711 5.3327 10.1646 5.02603 10.1646 4.6527C10.1646 4.27936 9.8711 3.9727 9.5109 3.9727H5.43528C5.07507 3.9727 4.78158 4.27936 4.78158 4.6527C4.78158 5.02603 5.07507 5.3327 5.43528 5.3327H7.3697C7.64318 5.3327 7.86998 5.56603 7.86998 5.8527C7.86998 6.13936 7.64318 6.3727 7.3697 6.3727H7.36303Z" fill="var(--fill-0, #78C800)"/>
</g>
</svg>
