<svg preserveAspectRatio="none" width="100%" height="100%" overflow="visible" style="display: block;" viewBox="0 0 16 16" fill="none" xmlns="http://www.w3.org/2000/svg">
<g id="Layer_1">
<path id="Union" fill-rule="evenodd" clip-rule="evenodd" d="M4.85791 4.35162C4.94609 3.95682 5.29972 3.67357 5.71195 3.67357H10.2814C10.6875 3.67357 11.0413 3.95148 11.1363 4.35562L11.5298 6.11325H4.4635L4.85791 4.35162ZM2.67836 6.38983L3.21598 3.98857C3.47637 2.82362 4.51632 2 5.71195 2H10.2814C11.4824 2 12.5081 2.82753 12.7758 3.98193L12.7773 3.98813L13.3141 6.38596C14.1173 6.79684 14.6667 7.62958 14.6667 8.59V10.0833C14.6667 11.2362 13.875 12.2052 12.803 12.4812C12.8125 12.5315 12.8174 12.5835 12.8174 12.6366V13.1632C12.8174 13.6254 12.4409 14 11.9765 14C11.512 14 11.1355 13.6254 11.1355 13.1632V12.6366C11.1355 12.6108 11.1366 12.5852 11.1389 12.5601H4.99505C4.99734 12.5852 4.99851 12.6108 4.99851 12.6366V13.1632C4.99851 13.6254 4.62199 14 4.15752 14C3.69305 14 3.31653 13.6254 3.31653 13.1632V12.6366C3.31653 12.5938 3.31975 12.5518 3.32597 12.5108C2.18914 12.2818 1.33333 11.282 1.33333 10.0833V8.59C1.33333 7.63259 1.8793 6.80206 2.67836 6.38983ZM3.01532 8.59C3.01532 8.14642 3.37672 7.78683 3.82253 7.78683H12.1775C12.6233 7.78683 12.9847 8.14642 12.9847 8.59V10.0833C12.9847 10.5269 12.6233 10.8865 12.1775 10.8865H3.82253C3.37672 10.8865 3.01532 10.5269 3.01532 10.0833V8.59ZM4.68015 10.07C5.1427 10.07 5.51766 9.69689 5.51766 9.23666C5.51766 8.77643 5.1427 8.40334 4.68015 8.40334C4.21761 8.40334 3.84265 8.77643 3.84265 9.23666C3.84265 9.69689 4.21761 10.07 4.68015 10.07ZM12.2378 9.23666C12.2378 9.69689 11.8628 10.07 11.4003 10.07C10.9377 10.07 10.5628 9.69689 10.5628 9.23666C10.5628 8.77643 10.9377 8.40334 11.4003 8.40334C11.8628 8.40334 12.2378 8.77643 12.2378 9.23666Z" fill="var(--fill-0, #B758E2)"/>
</g>
</svg>
