<svg preserveAspectRatio="none" width="100%" height="100%" overflow="visible" style="display: block;" viewBox="0 0 13.3333 13.3333" fill="none" xmlns="http://www.w3.org/2000/svg">
<g id="Layer_1">
<path id="Vector" d="M5.43735 13.3333C4.97926 13.3333 4.52117 13.1607 4.1693 12.8089L0.524482 9.15739C0.185892 8.8188 0 8.37399 0 7.88934C0 7.40469 0.185892 6.95988 0.524482 6.62129L0.577594 6.56818C1.16183 5.98394 2.0249 5.81133 2.78839 6.11008L3.49876 6.39556L4.00333 5.78477L2.03154 4.26444C1.22822 3.64701 1.03569 2.49846 1.6 1.6553C2.08465 0.931652 3.00083 0.619618 3.82407 0.891818L7.52864 2.12667L8.57761 1.07771C9.12201 0.533311 9.81246 0.168165 10.576 0.0353848C11.3262 -0.0973956 12.0963 0.148248 12.6407 0.692647C13.1851 1.23705 13.4307 2.00717 13.2979 2.75738C13.1652 3.52087 12.8 4.21133 12.2556 4.75572L11.2067 5.80469L12.4415 9.50926C12.7137 10.3325 12.4017 11.2487 11.678 11.7333C10.8349 12.2976 9.68632 12.1051 9.06889 11.3018L7.54856 9.32337L6.93777 9.82793L7.22325 10.5383C7.52864 11.3018 7.34939 12.1649 6.7718 12.7425L6.71868 12.7956C6.36682 13.1474 5.90872 13.3201 5.45063 13.3201L5.43735 13.3333ZM2.0249 7.63042C1.92531 7.63042 1.82573 7.67025 1.7527 7.74328L1.69959 7.79639C1.65311 7.84287 1.65311 7.93581 1.69959 7.98229L5.35105 11.6337C5.39088 11.6736 5.49047 11.6736 5.53694 11.6337L5.59005 11.5806C5.70291 11.4678 5.73611 11.3084 5.67636 11.1624L5.28466 10.1864C5.07885 9.67524 5.22491 9.09764 5.6498 8.74577L6.80499 7.78976C7.06391 7.57067 7.40914 7.47108 7.74773 7.51092C8.08632 7.55075 8.39835 7.72336 8.60416 7.99556L10.3768 10.2993C10.4631 10.4122 10.6291 10.4387 10.7486 10.3591C10.8548 10.286 10.8946 10.1599 10.8614 10.0404L9.5469 6.10345C9.39421 5.64535 9.51371 5.15407 9.8523 4.81548L11.0739 3.5939C11.3793 3.2885 11.5784 2.90344 11.6515 2.48518C11.7046 2.17979 11.532 1.9607 11.4523 1.88767C11.3726 1.808 11.1602 1.62875 10.8548 1.6885C10.4299 1.76153 10.0448 1.96734 9.74607 2.26609L8.5245 3.48767C8.18591 3.82626 7.68798 3.94576 7.23653 3.79307L3.29959 2.47854C3.18009 2.43871 3.04731 2.47854 2.98092 2.59141C2.90125 2.71091 2.92781 2.87688 3.04067 2.96319L5.34441 4.73581C5.61661 4.94162 5.78922 5.26029 5.82906 5.59888C5.86889 5.93747 5.76266 6.2827 5.55022 6.54162L4.60084 7.69681C4.24897 8.12171 3.67138 8.2744 3.16017 8.06195L2.1776 7.67025C2.13112 7.65034 2.08465 7.6437 2.03818 7.6437L2.0249 7.63042Z" fill="var(--fill-0, #624DC2)"/>
</g>
</svg>
