<svg preserveAspectRatio="xMidYMid meet" width="24" height="24" overflow="visible" style="display: block;" viewBox="0 0 11.7475 13.0527" fill="none" xmlns="http://www.w3.org/2000/svg">
<g id="pricing">
<path d="M6.14332 7.18219C6.57655 7.18219 6.92789 7.53867 6.92789 7.97823C6.92782 8.41773 6.5765 8.77427 6.14332 8.77427H4.72524C4.29214 8.77418 3.94075 8.41767 3.94068 7.97823C3.94068 7.53872 4.29209 7.18227 4.72524 7.18219H6.14332Z" fill="var(--fill-0, white)" fill-opacity="0.7"/>
<path d="M8.12036 4.52066C8.55358 4.52066 8.90492 4.87713 8.90492 5.31669C8.90488 5.75622 8.55355 6.11273 8.12036 6.11273H4.72524C4.29212 6.11265 3.94072 5.75617 3.94068 5.31669C3.94068 4.87718 4.29209 4.52074 4.72524 4.52066H8.12036Z" fill="var(--fill-0, white)" fill-opacity="0.7"/>
<path fill-rule="evenodd" clip-rule="evenodd" d="M7.82527 0C9.99049 0 11.7475 1.78265 11.7475 3.97955V9.07318C11.7475 11.2701 9.99049 13.0527 7.82527 13.0527H5.02033C2.85511 13.0527 1.09814 11.2701 1.09814 9.07318V2.96427L0.401524 2.96682C0.181931 2.96676 0 2.78238 0 2.55956V2.00571C0 0.986278 0.749221 0.145091 1.71954 0.0172082C1.77213 0.00593107 1.82681 0 1.8827 0H7.82527ZM2.66727 9.07318C2.66727 10.391 3.72156 11.4607 5.02033 11.4607H7.82527C9.12404 11.4607 10.1783 10.391 10.1783 9.07318V3.97955C10.1783 2.66177 9.12404 1.59208 7.82527 1.59208H2.66727V9.07318Z" fill="var(--fill-0, white)" fill-opacity="0.7"/>
</g>
</svg>
