<svg preserveAspectRatio="xMidYMid meet" width="24" height="24" overflow="visible" style="display: block;" viewBox="0 0 18 18" fill="none" xmlns="http://www.w3.org/2000/svg">
<g id="copy">
<path fill-rule="evenodd" clip-rule="evenodd" d="M8.05664 3.88672C5.77725 3.88681 3.91992 5.74829 3.91992 8.0332V13.8535C3.91992 16.1384 5.77725 17.9999 8.05664 18H13.8633C16.1427 18 18 16.1385 18 13.8535V8.0332C18 5.74823 16.1427 3.88672 13.8633 3.88672H8.05664ZM13.8633 6.36816C14.777 6.36816 15.5244 7.11724 15.5244 8.0332V13.8535C15.5244 14.7695 14.777 15.5176 13.8633 15.5176H8.05664C7.14297 15.5175 6.39648 14.7694 6.39648 13.8535V8.0332C6.39648 7.1173 7.14296 6.36826 8.05664 6.36816H13.8633Z" fill="black"/>
<path d="M7.33984 0C3.29182 0 0 3.29962 0 7.35742V11.0801C0 11.7597 0.55057 12.3115 1.22852 12.3115C1.9063 12.3113 2.45605 11.7595 2.45605 11.0801V7.35742C2.45605 4.65879 4.64771 2.46191 7.33984 2.46191H11.0537C11.7314 2.46178 12.2811 1.91081 12.2812 1.23145C12.2812 0.551948 11.7315 0.000138598 11.0537 0H7.33984Z" fill="black"/>
</g>
</svg>
