<svg preserveAspectRatio="xMidYMid meet" width="24" height="24" overflow="visible" style="display: block;" viewBox="0 0 12 13.3342" fill="none" xmlns="http://www.w3.org/2000/svg">
<g id="Layer_1">
<path id="Vector" d="M7.54535 0.336012C7.41097 0.228755 7.25644 0.148313 7.08847 0.0879808C6.2822 -0.186864 5.41545 0.201941 5.1131 0.979551L4.48152 2.5884L4.34714 2.46774C4.30683 2.42752 4.2598 2.394 4.20605 2.36048C3.52744 1.87783 2.58679 1.99849 2.06271 2.63532C0.692049 4.2978 0 6.0005 0 7.6965C0 10.8002 2.68757 13.3342 6 13.3342C9.31243 13.3342 12 10.8069 12 7.6965C12 4.15032 8.88242 1.36165 7.54535 0.329308V0.336012ZM6 11.5443C3.68197 11.5443 1.79395 9.81481 1.79395 7.6965C1.79395 6.47645 2.30459 5.21619 3.30571 3.93581L4.23292 4.77375C4.45465 4.96816 4.75028 5.0486 5.03919 4.98156C5.32811 4.91453 5.56327 4.71342 5.67077 4.43858L6.66517 1.91134C7.8813 2.89006 10.206 5.10223 10.206 7.68979C10.206 9.80811 8.31803 11.5376 6 11.5376V11.5443Z" fill="rgba(255,255,255,0.9)"/>
<path id="Vector_2" d="M7.11534 7.66968C6.98768 8.24618 6.59798 8.36685 6.51064 8.39366C6.0336 8.48751 5.71781 8.94335 5.79843 9.426C5.87234 9.86173 6.2486 10.1701 6.67861 10.1701C6.73236 10.1701 6.7794 10.1701 6.83315 10.1567C7.43785 10.0494 8.53975 9.49304 8.86226 8.06519C8.96977 7.58253 8.66741 7.10658 8.18365 6.99932C7.69989 6.88536 7.22285 7.19373 7.11534 7.67638V7.66968Z" fill="rgba(255,255,255,0.9)"/>
</g>
</svg>
