<svg preserveAspectRatio="xMidYMid meet" width="24" height="24" overflow="visible" style="display: block;" viewBox="0 0 20 20" fill="none" xmlns="http://www.w3.org/2000/svg">
<g id="Vector">
<path d="M10.0043 0C7.53419 0 5.16449 0.902256 3.27677 2.59649L2.98558 2.88722L2.18229 2.08521C1.97143 1.87469 1.6702 1.81454 1.38905 1.91479C1.11794 2.01504 0.917117 2.26566 0.897034 2.55639L0.545597 6.45614C0.525514 6.67669 0.605843 6.89724 0.7665 7.05764C0.927158 7.21805 1.14806 7.29825 1.36897 7.2782L5.27494 6.92732C5.56614 6.89724 5.81716 6.70677 5.91757 6.43609C6.01798 6.16541 5.9477 5.85464 5.74687 5.64411L4.77289 4.67168L5.01388 4.43108C6.3895 3.19799 8.16677 2.52632 10.0143 2.52632C13.8701 2.52632 17.1636 5.52381 17.4949 9.36341C17.5552 10.015 18.0974 10.5063 18.74 10.5063C18.7802 10.5063 18.8103 10.5063 18.8505 10.5063C19.5433 10.4461 20.0554 9.83459 19.9952 9.15288C19.5433 4.0401 15.1554 0.0300752 10.0143 0.0300752L10.0043 0Z" fill="black"/>
<path d="M18.7702 12.792L14.8642 13.1429C14.573 13.173 14.322 13.3634 14.2216 13.6341C14.1212 13.9048 14.1914 14.2156 14.3923 14.4261L15.2759 15.3083L15.0048 15.579C13.6291 16.812 11.8519 17.4837 10.0043 17.4938C6.11841 17.4938 2.82494 14.4662 2.51367 10.6065C2.45342 9.91481 1.87104 9.40353 1.15812 9.45365C0.465286 9.5138 -0.0468087 10.1153 0.00339671 10.807C0.415081 15.9699 4.80303 20 9.99427 20C12.4644 20 14.8341 19.0877 16.7218 17.4035L17.0431 17.0827L17.9368 17.975C18.1476 18.1855 18.4489 18.2456 18.73 18.1454C19.0011 18.0451 19.2019 17.7945 19.222 17.5038L19.5735 13.604C19.5935 13.3835 19.5132 13.1629 19.3526 13.0025C19.1919 12.8421 18.971 12.7619 18.7501 12.782L18.7702 12.792Z" fill="black"/>
</g>
</svg>
