<svg preserveAspectRatio="xMidYMid meet" width="24" height="24" overflow="visible" style="display: block;" viewBox="1 1 22 22" fill="none" xmlns="http://www.w3.org/2000/svg">
<g id="Layer_1">
<path id="Vector" d="M12.1048 2.08486L12.5574 4.12572C13.3662 7.77999 16.22 10.6338 19.8743 11.4426L21.9151 11.8952C22.0283 11.9204 22.0283 12.0796 21.9151 12.1048L19.8743 12.5574C16.22 13.3662 13.3662 16.22 12.5574 19.8743L12.1048 21.9151C12.0796 22.0283 11.9204 22.0283 11.8952 21.9151L11.4426 19.8743C10.6338 16.22 7.77999 13.3662 4.12572 12.5574L2.08486 12.1048C1.97171 12.0796 1.97171 11.9204 2.08486 11.8952L4.12572 11.4426C7.77999 10.6338 10.6338 7.77999 11.4426 4.12572L11.8952 2.08486C11.9204 1.97171 12.0796 1.97171 12.1048 2.08486Z" fill="rgba(255,255,255,0.9)"/>
</g>
</svg>
