<svg preserveAspectRatio="xMidYMid meet" width="24" height="24" overflow="visible" style="display: block;" viewBox="0 0 20.0047 20" fill="none" xmlns="http://www.w3.org/2000/svg">
<path id="Vector" d="M12.3563 19.99H12.3363L5.0788 19.96C2.89954 19.96 1.04018 18.3706 0.760277 16.2813L0.0405238 11.103C-0.129418 9.91346 0.240455 8.70387 1.05018 7.78418L6.88818 1.3164C7.55795 0.426705 8.78753 -0.103114 10.0171 0.0168451C11.0767 0.116811 12.0164 0.646629 12.6262 1.49634C13.236 2.34605 13.4059 3.39569 13.126 4.38535L12.5862 6.18473L14.7955 5.87484C16.4149 5.64492 17.9844 6.25471 19.004 7.48429C20.0237 8.72386 20.2836 10.3433 19.6938 11.8228L17.9144 16.3013C17.0347 18.5205 14.8055 20 12.3663 20L12.3563 19.99ZM9.68722 2.476C9.37733 2.476 9.06743 2.62595 8.8775 2.86587L2.98951 9.41363C2.66962 9.7835 2.51967 10.2833 2.57965 10.7732L3.29941 15.9514C3.41937 16.8211 4.1891 17.4709 5.08879 17.4809L12.3463 17.5109H12.3563C13.7458 17.5109 15.0154 16.6711 15.5152 15.4016L17.2946 10.9231C17.5545 10.2733 17.4346 9.57357 16.9947 9.03376C16.5549 8.49394 15.8651 8.23403 15.1553 8.324L10.9668 8.9138C10.5369 8.97378 10.0971 8.81383 9.81717 8.49394C9.52727 8.17405 9.43731 7.7342 9.55726 7.33434L10.6569 3.69558C10.7668 3.32571 10.6069 3.03581 10.5169 2.89586C10.427 2.75591 10.187 2.51599 9.78719 2.476C9.7572 2.476 9.72721 2.476 9.69722 2.476H9.68722Z" fill="black"/>
</svg>
