<svg preserveAspectRatio="none" width="100%" height="100%" overflow="visible" style="display: block;" viewBox="0 0 198.97 124.52" fill="none" xmlns="http://www.w3.org/2000/svg">
<g id="Frame" clip-path="url(#clip0_0_27)">
<path id="Vector" d="M102.05 118.51L106.09 119.33" stroke="var(--stroke-0, black)" stroke-width="0.75" stroke-miterlimit="10" stroke-linecap="round"/>
<path id="Vector_2" d="M98.38 120.37L99.97 124.15" stroke="var(--stroke-0, black)" stroke-width="0.75" stroke-miterlimit="10" stroke-linecap="round"/>
<path id="Vector_3" d="M105.09 113.33L102.04 114.62" stroke="var(--stroke-0, black)" stroke-width="0.75" stroke-miterlimit="10" stroke-linecap="round"/>
<path id="Vector_4" d="M143.1 79.96C132.91 80.71 123.48 82.67 115.54 85.42C120.54 89.09 124.59 95.04 128.48 101.64C131.55 106.85 134.14 111.45 138.46 114.91C140.3 116.39 143.55 118.48 146.46 119.32C156.37 122.19 170.15 121.33 179.85 117.4C192.1 112.44 196.37 105.49 196.07 98.31C195.57 86.06 171.85 77.85 143.09 79.97L143.1 79.96Z" stroke="var(--stroke-0, black)" stroke-width="0.75" stroke-miterlimit="10"/>
<g id="Group">
<path id="Vector_5" d="M126.6 89.25C126.26 88.24 124.95 68.76 114.03 58C109.96 54 104.34 51.51 99.22 51.66C87.82 51.99 81.78 64.79 84.86 78.19C85.08 79.15 85.97 83.02 89.04 88.01C92.65 93.86 97.69 98.37 103.44 101.33C107.62 103.48 112.7 105.06 119.74 106.46C124.22 107.35 131.93 107.85 132.38 107.87C128.48 101.47 127.34 97.07 126.6 89.24V89.25Z" fill="var(--fill-0, #E6E6E6)"/>
<path id="Vector_6" d="M126.96 89.15C126.75 88.47 126.73 87.69 126.63 86.99C126.41 85.47 126.16 83.95 125.87 82.45C125.01 78.08 123.79 73.77 122.05 69.67C117.97 60.06 109.24 49.88 97.64 51.42C87.43 52.78 83.22 63.82 83.73 72.95C84.32 83.67 90.77 93.57 99.56 99.49C104.91 103.09 111.11 105 117.36 106.36C122.29 107.44 127.33 107.96 132.37 108.26C132.66 108.28 132.84 107.93 132.69 107.7C131.03 104.95 129.58 102.09 128.65 99.01C127.72 95.93 127.28 92.55 126.96 89.26C126.91 88.78 126.16 88.78 126.21 89.26C126.53 92.61 126.95 95.97 127.93 99.2C128.91 102.43 130.35 105.27 132.04 108.07L132.36 107.51C122.92 106.95 113.05 105.59 104.46 101.44C95.2 96.96 87.53 88.24 85.21 78.1C83.15 69.11 85.08 56.24 95.09 52.79C100.51 50.92 106.51 52.77 111.03 55.98C115.31 59.03 118.37 63.54 120.59 68.23C122.68 72.65 124.08 77.38 125.05 82.17C125.38 83.78 125.65 85.41 125.89 87.04C126 87.79 126.02 88.63 126.24 89.36C126.38 89.82 127.1 89.62 126.96 89.16V89.15Z" fill="var(--fill-0, black)"/>
</g>
<path id="Vector_7" d="M133.31 108.81C152.82 112.92 168.52 110.75 168.52 110.75C188.59 106.93 181.25 97.38 181.25 97.38C166.11 83.51 127.69 91.94 127.69 91.94C127.69 91.94 127.69 99.44 132.83 107.87" fill="var(--fill-0, #E6E6E6)"/>
<path id="Vector_8" d="M96.1 57.33C97.08 49.33 91.2 45.33 80.43 42.33C75.7 41.01 74.55 41.33 73.57 36.33C71.28 24.64 66.02 13.31 57.9 8.33C57.9 8.33 34.39 -8.67 7.12 5.91C6.09 6.46 5.35 7.71 5.26 9.09C5.18 10.26 5.54 11.59 7.13 12.52C8.2 13.14 8.05 14.76 6.91 15.23C3.83 16.48 0.94 18.71 1.72 22.6C3.11 29.48 9.85 26.39 10.29 26.18C9.85 26.4 6.14 33.47 2.97 66.33C2.97 66.39 0.09 105.33 0.09 105.33C0.09 114.33 5.77 117.09 8.74 117.33C33.09 119.33 56.09 118.33 73.14 116.33C75.3 116.08 84.67 115.33 80.83 94.33L77.96 67.69C77.73 65.6 79.48 63.85 81.52 64.12C90.8 65.35 95.6 61.42 96.1 57.33V57.33Z" fill="var(--fill-0, #DA93FF)"/>
<g id="Group_2">
<path id="Vector_9" d="M43.82 38.42C43.87 38.82 43.92 39.23 43.97 39.63Z" fill="var(--fill-0, #00D4E9)"/>
<path id="Vector_10" d="M42.32 38.42C42.37 38.82 42.42 39.23 42.47 39.63C42.47 39.84 42.51 40.03 42.6 40.21C42.66 40.4 42.76 40.56 42.91 40.69C43.05 40.84 43.21 40.94 43.39 41C43.57 41.09 43.76 41.14 43.97 41.13L44.37 41.08C44.62 41.01 44.84 40.88 45.03 40.69L45.26 40.39C45.4 40.16 45.46 39.9 45.46 39.63C45.41 39.23 45.36 38.82 45.31 38.42C45.31 38.21 45.27 38.02 45.18 37.84C45.12 37.65 45.02 37.49 44.87 37.36C44.73 37.21 44.57 37.11 44.39 37.05C44.21 36.96 44.02 36.91 43.81 36.92L43.41 36.97C43.16 37.04 42.94 37.17 42.75 37.36L42.52 37.66C42.38 37.89 42.32 38.15 42.32 38.42Z" fill="var(--fill-0, black)"/>
</g>
<g id="Group_3">
<path id="Vector_11" d="M59.5 37.97C59.55 38.37 59.6 38.78 59.65 39.18Z" fill="var(--fill-0, #00D4E9)"/>
<path id="Vector_12" d="M58 37.97C58.05 38.37 58.1 38.78 58.15 39.18C58.15 39.39 58.19 39.58 58.28 39.76C58.34 39.95 58.44 40.11 58.59 40.24C58.73 40.39 58.89 40.49 59.07 40.55C59.25 40.64 59.44 40.69 59.65 40.68L60.05 40.63C60.3 40.56 60.52 40.43 60.71 40.24L60.94 39.94C61.08 39.71 61.14 39.45 61.14 39.18C61.09 38.78 61.04 38.37 60.99 37.97C60.99 37.76 60.95 37.57 60.86 37.39C60.8 37.2 60.7 37.04 60.55 36.91C60.41 36.76 60.25 36.66 60.07 36.6C59.89 36.51 59.7 36.46 59.49 36.47L59.09 36.52C58.84 36.59 58.62 36.72 58.43 36.91L58.2 37.21C58.06 37.44 58 37.7 58 37.97Z" fill="var(--fill-0, black)"/>
</g>
<path id="Vector_13" d="M54.69 48C53.21 46.74 50.08 45.45 47.48 49.1C47.01 49.75 46.99 50.75 47.46 51.46C47.92 52.14 48.86 52.59 50.79 51.62C50.79 51.62 52.01 51.09 52.91 51.48C52.91 51.48 55.72 52.75 55.86 50.47C55.92 49.51 55.37 48.6 54.68 48.01L54.69 48Z" fill="var(--fill-0, black)"/>
<path id="Vector_14" d="M16.31 57.88C16.31 57.88 27.21 56.1 34.91 51.55C42.61 47 49.34 56.96 45.66 64.82C43.24 70.01 38.54 75.26 28.77 78.05" stroke="var(--stroke-0, #BF70F2)" stroke-linecap="round" stroke-linejoin="round"/>
<path id="Vector_15" opacity="0.4" d="M3.02 25.52C3.02 25.52 6.7 26.03 10.63 24.18C11.55 23.75 12.52 24.71 12.14 25.67C10.57 29.61 9.71 34.32 8.27 40.82C8.27 40.82 3.94 77.32 3.03 99.26C3.03 99.26 1.92 106.61 4.82 111.76C6.26 114.32 8.96 115.82 11.81 115.87L29.1 118.33L8.75 117.33C8.75 117.33 -2.9 117.33 0.69 97.3C0.69 97.3 4.65 32.52 10.3 26.17C10.3 26.17 5.47 28.22 3.02 25.52V25.52Z" fill="var(--fill-0, #BF70F2)"/>
<path id="Vector_16" d="M138.56 118.09C140.01 118.09 140.01 115.84 138.56 115.84C137.11 115.84 137.11 118.09 138.56 118.09Z" fill="var(--fill-0, #E6E6E6)"/>
<path id="Vector_17" d="M142.68 120.65C144.13 120.65 144.13 118.4 142.68 118.4C141.23 118.4 141.23 120.65 142.68 120.65Z" fill="var(--fill-0, #E6E6E6)"/>
<path id="Vector_18" d="M147.89 122.58C149.34 122.58 149.34 120.33 147.89 120.33C146.44 120.33 146.44 122.58 147.89 122.58Z" fill="var(--fill-0, #E6E6E6)"/>
<path id="Vector_19" d="M153.62 123.49C155.07 123.49 155.07 121.24 153.62 121.24C152.17 121.24 152.17 123.49 153.62 123.49Z" fill="var(--fill-0, #E6E6E6)"/>
<path id="Vector_20" d="M159.14 124C160.59 124 160.59 121.75 159.14 121.75C157.69 121.75 157.69 124 159.14 124Z" fill="var(--fill-0, #E6E6E6)"/>
<path id="Vector_21" d="M165.11 123.69C166.56 123.69 166.56 121.44 165.11 121.44C163.66 121.44 163.66 123.69 165.11 123.69Z" fill="var(--fill-0, #E6E6E6)"/>
<path id="Vector_22" d="M170.58 122.93C172.03 122.93 172.03 120.68 170.58 120.68C169.13 120.68 169.13 122.93 170.58 122.93Z" fill="var(--fill-0, #E6E6E6)"/>
<path id="Vector_23" d="M175.34 121.77C176.79 121.77 176.79 119.52 175.34 119.52C173.89 119.52 173.89 121.77 175.34 121.77Z" fill="var(--fill-0, #E6E6E6)"/>
<path id="Vector_24" d="M180.05 120.25C181.5 120.25 181.5 118 180.05 118C178.6 118 178.6 120.25 180.05 120.25Z" fill="var(--fill-0, #E6E6E6)"/>
<path id="Vector_25" d="M184.46 118.32C185.91 118.32 185.91 116.07 184.46 116.07C183.01 116.07 183.01 118.32 184.46 118.32Z" fill="var(--fill-0, #E6E6E6)"/>
<path id="Vector_26" d="M188.06 116.2C189.51 116.2 189.51 113.95 188.06 113.95C186.61 113.95 186.61 116.2 188.06 116.2Z" fill="var(--fill-0, #E6E6E6)"/>
<path id="Vector_27" d="M191.25 113.82C192.7 113.82 192.7 111.57 191.25 111.57C189.8 111.57 189.8 113.82 191.25 113.82Z" fill="var(--fill-0, #E6E6E6)"/>
<path id="Vector_28" d="M194.18 110.78C195.63 110.78 195.63 108.53 194.18 108.53C192.73 108.53 192.73 110.78 194.18 110.78Z" fill="var(--fill-0, #E6E6E6)"/>
<path id="Vector_29" d="M196.87 106.17C198.32 106.17 198.32 103.92 196.87 103.92C195.42 103.92 195.42 106.17 196.87 106.17Z" fill="var(--fill-0, #E6E6E6)"/>
<path id="Vector_30" d="M197.88 100.9C199.33 100.9 199.33 98.65 197.88 98.65C196.43 98.65 196.43 100.9 197.88 100.9Z" fill="var(--fill-0, #E6E6E6)"/>
<path id="Vector_31" d="M197.02 95.33C198.47 95.33 198.47 93.08 197.02 93.08C195.57 93.08 195.57 95.33 197.02 95.33Z" fill="var(--fill-0, #E6E6E6)"/>
<path id="Vector_32" d="M193.93 90.88C195.38 90.88 195.38 88.63 193.93 88.63C192.48 88.63 192.48 90.88 193.93 90.88Z" fill="var(--fill-0, #E6E6E6)"/>
<path id="Vector_33" d="M189.02 87.08C190.47 87.08 190.47 84.83 189.02 84.83C187.57 84.83 187.57 87.08 189.02 87.08Z" fill="var(--fill-0, #E6E6E6)"/>
<path id="Vector_34" d="M183.4 84.24C184.85 84.24 184.85 81.99 183.4 81.99C181.95 81.99 181.95 84.24 183.4 84.24Z" fill="var(--fill-0, #E6E6E6)"/>
<path id="Vector_35" d="M177.93 82.27C179.38 82.27 179.38 80.02 177.93 80.02C176.48 80.02 176.48 82.27 177.93 82.27Z" fill="var(--fill-0, #E6E6E6)"/>
<path id="Vector_36" d="M172.71 81.03C174.16 81.03 174.16 78.78 172.71 78.78C171.26 78.78 171.26 81.03 172.71 81.03Z" fill="var(--fill-0, #E6E6E6)"/>
<path id="Vector_37" d="M166.98 79.99C168.43 79.99 168.43 77.74 166.98 77.74C165.53 77.74 165.53 79.99 166.98 79.99Z" fill="var(--fill-0, #E6E6E6)"/>
<path id="Vector_38" d="M160.87 79.29C162.32 79.29 162.32 77.04 160.87 77.04C159.42 77.04 159.42 79.29 160.87 79.29Z" fill="var(--fill-0, #E6E6E6)"/>
<path id="Vector_39" d="M154.88 78.94C156.33 78.94 156.33 76.69 154.88 76.69C153.43 76.69 153.43 78.94 154.88 78.94Z" fill="var(--fill-0, #E6E6E6)"/>
<path id="Vector_40" d="M147.51 78.99C148.96 78.99 148.96 76.74 147.51 76.74C146.06 76.74 146.06 78.99 147.51 78.99Z" fill="var(--fill-0, #E6E6E6)"/>
<path id="Vector_41" d="M140.57 79.47C142.02 79.47 142.02 77.22 140.57 77.22C139.12 77.22 139.12 79.47 140.57 79.47Z" fill="var(--fill-0, #E6E6E6)"/>
<path id="Vector_42" d="M133.89 80.38C135.34 80.38 135.34 78.13 133.89 78.13C132.44 78.13 132.44 80.38 133.89 80.38Z" fill="var(--fill-0, #E6E6E6)"/>
<path id="Vector_43" d="M127.08 81.63C128.53 81.63 128.53 79.38 127.08 79.38C125.63 79.38 125.63 81.63 127.08 81.63Z" fill="var(--fill-0, #E6E6E6)"/>
<path id="Vector_44" d="M96.59 51.27C98.04 51.27 98.04 49.02 96.59 49.02C95.14 49.02 95.14 51.27 96.59 51.27Z" fill="var(--fill-0, #E6E6E6)"/>
<path id="Vector_45" d="M101.48 51.05C102.93 51.05 102.93 48.8 101.48 48.8C100.03 48.8 100.03 51.05 101.48 51.05Z" fill="var(--fill-0, #E6E6E6)"/>
<path id="Vector_46" d="M106.81 51.92C108.26 51.92 108.26 49.67 106.81 49.67C105.36 49.67 105.36 51.92 106.81 51.92Z" fill="var(--fill-0, #E6E6E6)"/>
<path id="Vector_47" d="M111.59 54.63C113.04 54.63 113.04 52.38 111.59 52.38C110.14 52.38 110.14 54.63 111.59 54.63Z" fill="var(--fill-0, #E6E6E6)"/>
<path id="Vector_48" d="M116.48 58.87C117.93 58.87 117.93 56.62 116.48 56.62C115.03 56.62 115.03 58.87 116.48 58.87Z" fill="var(--fill-0, #E6E6E6)"/>
<path id="Vector_49" d="M120.39 63.65C121.84 63.65 121.84 61.4 120.39 61.4C118.94 61.4 118.94 63.65 120.39 63.65Z" fill="var(--fill-0, #E6E6E6)"/>
<path id="Vector_50" d="M123.32 69.3C124.77 69.3 124.77 67.05 123.32 67.05C121.87 67.05 121.87 69.3 123.32 69.3Z" fill="var(--fill-0, #E6E6E6)"/>
<path id="Vector_51" d="M125.61 75.61C127.06 75.61 127.06 73.36 125.61 73.36C124.16 73.36 124.16 75.61 125.61 75.61Z" fill="var(--fill-0, #E6E6E6)"/>
<path id="Vector_52" d="M82.71 66.99C84.16 66.99 84.16 64.74 82.71 64.74C81.26 64.74 81.26 66.99 82.71 66.99Z" fill="var(--fill-0, #E6E6E6)"/>
<path id="Vector_53" d="M82.28 72.58C83.73 72.58 83.73 70.33 82.28 70.33C80.83 70.33 80.83 72.58 82.28 72.58Z" fill="var(--fill-0, #E6E6E6)"/>
<path id="Vector_54" d="M82.96 78.41C84.41 78.41 84.41 76.16 82.96 76.16C81.51 76.16 81.51 78.41 82.96 78.41Z" fill="var(--fill-0, #E6E6E6)"/>
<path id="Vector_55" d="M84.31 83.74C85.76 83.74 85.76 81.49 84.31 81.49C82.86 81.49 82.86 83.74 84.31 83.74Z" fill="var(--fill-0, #E6E6E6)"/>
<path id="Vector_56" d="M86.85 88.9C88.3 88.9 88.3 86.65 86.85 86.65C85.4 86.65 85.4 88.9 86.85 88.9Z" fill="var(--fill-0, #E6E6E6)"/>
<path id="Vector_57" d="M89.98 93.56C91.43 93.56 91.43 91.31 89.98 91.31C88.53 91.31 88.53 93.56 89.98 93.56Z" fill="var(--fill-0, #E6E6E6)"/>
<path id="Vector_58" d="M93.7 97.79C95.15 97.79 95.15 95.54 93.7 95.54C92.25 95.54 92.25 97.79 93.7 97.79Z" fill="var(--fill-0, #E6E6E6)"/>
<path id="Vector_59" d="M97.68 101.25C99.13 101.25 99.13 99 97.68 99C96.23 99 96.23 101.25 97.68 101.25Z" fill="var(--fill-0, #E6E6E6)"/>
<path id="Vector_60" d="M103.01 104.38C104.46 104.38 104.46 102.13 103.01 102.13C101.56 102.13 101.56 104.38 103.01 104.38Z" fill="var(--fill-0, #E6E6E6)"/>
<path id="Vector_61" d="M109.01 106.92C110.46 106.92 110.46 104.67 109.01 104.67C107.56 104.67 107.56 106.92 109.01 106.92Z" fill="var(--fill-0, #E6E6E6)"/>
<path id="Vector_62" d="M114.51 108.27C115.96 108.27 115.96 106.02 114.51 106.02C113.06 106.02 113.06 108.27 114.51 108.27Z" fill="var(--fill-0, #E6E6E6)"/>
<path id="Vector_63" d="M121.11 109.8C122.56 109.8 122.56 107.55 121.11 107.55C119.66 107.55 119.66 109.8 121.11 109.8Z" fill="var(--fill-0, #E6E6E6)"/>
<path id="Vector_64" d="M127.79 110.73C129.24 110.73 129.24 108.48 127.79 108.48C126.34 108.48 126.34 110.73 127.79 110.73Z" fill="var(--fill-0, #E6E6E6)"/>
<path id="Vector_65" d="M133.97 114.45C135.42 114.45 135.42 112.2 133.97 112.2C132.52 112.2 132.52 114.45 133.97 114.45Z" fill="var(--fill-0, #E6E6E6)"/>
</g>
<defs>
<clipPath id="clip0_0_27">
<rect width="198.97" height="124.52" fill="white"/>
</clipPath>
</defs>
</svg>
