<svg width="48" height="48" viewBox="0 0 48 48" fill="none" xmlns="http://www.w3.org/2000/svg">
<g id="Devices/Gear">
<g id="Vector">
<path d="M23 33.3333C22.5667 33.3333 22.1333 33.2167 21.7417 32.9917L16.8333 30.15C16.0083 29.675 15.5 28.7667 15.5 27.7833V22.2167C15.5 21.2333 16.0083 20.325 16.8333 19.85L21.7417 17.0083C22.525 16.55 23.4667 16.55 24.2583 17.0083L29.1667 19.85C29.9917 20.325 30.5 21.2333 30.5 22.2167V27.7833C30.5 28.7667 29.9917 29.675 29.1667 30.15L24.2583 32.9917C23.8667 33.2167 23.4333 33.3333 23 33.3333ZM23 18.75C22.9 18.75 22.8 18.775 22.7083 18.825L17.8 21.6667C17.6083 21.775 17.4917 21.9833 17.4917 22.2167V27.7833C17.4917 28.0083 17.6083 28.2167 17.8 28.3333L22.7083 31.175C22.8917 31.2833 23.1083 31.2833 23.2917 31.175L28.2 28.3333C28.3917 28.225 28.5083 28.0167 28.5083 27.7833V22.2167C28.5083 21.9917 28.3917 21.7833 28.2 21.6667L23.2917 18.825C23.2 18.775 23.1 18.7417 23 18.7417V18.75Z" fill="#2B6ACF"/>
<path d="M23.0333 28.35C21.1917 28.35 19.7 26.8583 19.7 25.0167C19.7 23.175 21.2 21.6833 23.0333 21.6833C24.8667 21.6833 26.3667 23.175 26.3667 25.0167C26.3667 26.8583 24.8667 28.35 23.0333 28.35ZM23.0333 23.7667C22.3417 23.7667 21.7833 24.325 21.7833 25.0167C21.7833 25.7083 22.3417 26.2667 23.0333 26.2667C23.725 26.2667 24.2833 25.7083 24.2833 25.0167C24.2833 24.325 23.725 23.7667 23.0333 23.7667Z" fill="#2B6ACF"/>
</g>
</g>
<g id="Ellipse 1462">
<mask id="path-4-inside-2_0_367" fill="white">
<path d="M24 0.96C24 0.429807 24.43 -0.00200456 24.9598 0.0191973C27.7839 0.132222 30.5685 0.743353 33.1844 1.82689C36.0962 3.033 38.742 4.80083 40.9706 7.02944C43.1992 9.25805 44.967 11.9038 46.1731 14.8156C47.2566 17.4315 47.8678 20.2161 47.9808 23.0402C48.002 23.57 47.5702 24 47.04 24V24C46.5098 24 46.0822 23.57 46.0591 23.0403C45.9472 20.4684 45.3863 17.9333 44.3993 15.5504C43.2896 12.8715 41.6632 10.4374 39.6129 8.38708C37.5626 6.33677 35.1285 4.71036 32.4497 3.60074C30.0667 2.6137 27.5316 2.05276 24.9597 1.94087C24.43 1.91782 24 1.49019 24 0.96V0.96Z"/>
</mask>
<path d="M24 0.96C24 0.429807 24.43 -0.00200456 24.9598 0.0191973C27.7839 0.132222 30.5685 0.743353 33.1844 1.82689C36.0962 3.033 38.742 4.80083 40.9706 7.02944C43.1992 9.25805 44.967 11.9038 46.1731 14.8156C47.2566 17.4315 47.8678 20.2161 47.9808 23.0402C48.002 23.57 47.5702 24 47.04 24V24C46.5098 24 46.0822 23.57 46.0591 23.0403C45.9472 20.4684 45.3863 17.9333 44.3993 15.5504C43.2896 12.8715 41.6632 10.4374 39.6129 8.38708C37.5626 6.33677 35.1285 4.71036 32.4497 3.60074C30.0667 2.6137 27.5316 2.05276 24.9597 1.94087C24.43 1.91782 24 1.49019 24 0.96V0.96Z" stroke="#2B6ACF" stroke-width="2" stroke-linejoin="round" mask="url(#path-4-inside-2_0_367)"/>
</g>
</svg>
