<svg preserveAspectRatio="none" width="100%" height="100%" overflow="visible" style="display: block;" viewBox="0 0 20 19.9999" fill="none" xmlns="http://www.w3.org/2000/svg">
<path id="bank" d="M16.9326 17.4471C17.62 17.4474 18.1767 18.0189 18.1768 18.7235C18.1768 19.4282 17.62 19.9996 16.9326 19.9999H2.9883C2.3007 19.9999 1.74318 19.4283 1.74318 18.7235C1.74329 18.0188 2.30077 17.4471 2.9883 17.4471H16.9326ZM4.63185 8.48425C5.31916 8.48445 5.87677 9.05515 5.87697 9.75964V14.6092C5.87697 15.3139 5.31929 15.8854 4.63185 15.8856C3.94426 15.8856 3.38674 15.314 3.38674 14.6092V9.75964C3.38694 9.05502 3.94438 8.48425 4.63185 8.48425ZM15.3692 8.48425C16.0565 8.48445 16.6141 9.05515 16.6143 9.75964V14.6092C16.6143 15.3139 16.0566 15.8854 15.3692 15.8856C14.6816 15.8856 14.124 15.314 14.124 14.6092V9.75964C14.1242 9.05502 14.6817 8.48425 15.3692 8.48425ZM10 10.5262C10.6875 10.5262 11.245 11.097 11.2451 11.8016V13.5887C11.245 14.2934 10.6875 14.8651 10 14.8651C9.31256 14.865 8.75502 14.2934 8.7549 13.5887V11.8016C8.75504 11.097 9.31257 10.5263 10 10.5262ZM7.04299 0.868039C8.81412 -0.306499 11.1098 -0.294305 12.8721 0.936398L19.4551 5.53015C20.0235 5.92678 20.1711 6.72098 19.7842 7.30359C19.3972 7.88595 18.623 8.03598 18.0547 7.63952L11.4707 3.04577C10.5443 2.39866 9.33413 2.38943 8.3965 3.01062L8.39553 3.01159L1.92385 7.328C1.34757 7.71215 0.576163 7.54459 0.20119 6.95398C-0.173455 6.3633 -0.00972544 5.57267 0.566424 5.18835L7.04299 0.868039Z" fill="var(--fill-0, #B4BFCB)"/>
</svg>
